<mxfile host="app.diagrams.net" agent="Mozilla/5.0 (Windows NT 10.0; Win64; x64) AppleWebKit/537.36 (KHTML, like Gecko) Chrome/132.0.0.0 Safari/537.36" version="26.0.15">
  <diagram name="Page-1" id="cnbzRU0rAFX-k-fzayAw">
    <mxGraphModel dx="2232" dy="1029" grid="0" gridSize="10" guides="1" tooltips="1" connect="1" arrows="1" fold="1" page="1" pageScale="1" pageWidth="827" pageHeight="1169" math="0" shadow="0">
      <root>
        <mxCell id="0" />
        <mxCell id="1" parent="0" />
        <mxCell id="gg5CP_R30aCd0W26x7RS-1" value="" style="rounded=1;whiteSpace=wrap;html=1;absoluteArcSize=1;arcSize=14;strokeWidth=2;" vertex="1" parent="1">
          <mxGeometry x="40" y="120" width="720" height="1000" as="geometry" />
        </mxCell>
        <mxCell id="gg5CP_R30aCd0W26x7RS-2" value="&lt;b&gt;&lt;font style=&quot;font-size: 24px;&quot;&gt;Image Retrieval System Architecture&lt;/font&gt;&lt;/b&gt;" style="text;html=1;align=center;verticalAlign=middle;resizable=0;points=[];autosize=1;strokeColor=none;fillColor=none;" vertex="1" parent="1">
          <mxGeometry x="180" y="150" width="440" height="40" as="geometry" />
        </mxCell>
        <mxCell id="gg5CP_R30aCd0W26x7RS-3" value="" style="rounded=1;whiteSpace=wrap;html=1;absoluteArcSize=1;arcSize=14;strokeWidth=2;strokeColor=light-dark(#2D88FF,#E1F5FE);fillColor=light-dark(#E1F5FE,var(--ge-dark-color, #121212));" vertex="1" parent="1">
          <mxGeometry x="100" y="230" width="600" height="190" as="geometry" />
        </mxCell>
        <mxCell id="gg5CP_R30aCd0W26x7RS-4" value="" style="rounded=1;whiteSpace=wrap;html=1;absoluteArcSize=1;arcSize=14;strokeWidth=2;strokeColor=light-dark(#389900,#E1F5FE);fillColor=light-dark(#D8FFC1,var(--ge-dark-color, #121212));" vertex="1" parent="1">
          <mxGeometry x="100" y="450" width="600" height="360" as="geometry" />
        </mxCell>
        <mxCell id="gg5CP_R30aCd0W26x7RS-5" value="" style="rounded=1;whiteSpace=wrap;html=1;absoluteArcSize=1;arcSize=14;strokeWidth=2;strokeColor=light-dark(#FFC116,#E1F5FE);fillColor=light-dark(#FFE591,var(--ge-dark-color, #121212));" vertex="1" parent="1">
          <mxGeometry x="100" y="860" width="600" height="200" as="geometry" />
        </mxCell>
        <mxCell id="gg5CP_R30aCd0W26x7RS-9" value="&lt;font style=&quot;font-size: 18px;&quot;&gt;&lt;b style=&quot;&quot;&gt;Application Layer&lt;/b&gt;&lt;/font&gt;" style="text;html=1;align=center;verticalAlign=middle;whiteSpace=wrap;rounded=0;" vertex="1" parent="1">
          <mxGeometry x="320" y="470" width="160" height="30" as="geometry" />
        </mxCell>
        <mxCell id="gg5CP_R30aCd0W26x7RS-25" value="&lt;font style=&quot;font-size: 12px;&quot;&gt;&lt;b style=&quot;&quot;&gt;&lt;u&gt;Core Processing&lt;/u&gt;&lt;/b&gt;&lt;/font&gt;" style="text;html=1;align=center;verticalAlign=middle;whiteSpace=wrap;rounded=0;" vertex="1" parent="1">
          <mxGeometry x="130" y="500" width="110" height="30" as="geometry" />
        </mxCell>
        <mxCell id="gg5CP_R30aCd0W26x7RS-10" value="&lt;font style=&quot;font-size: 18px;&quot;&gt;&lt;b style=&quot;&quot;&gt;Infrastructure Layer&lt;/b&gt;&lt;/font&gt;" style="text;html=1;align=center;verticalAlign=middle;whiteSpace=wrap;rounded=0;" vertex="1" parent="1">
          <mxGeometry x="305" y="880" width="190" height="30" as="geometry" />
        </mxCell>
        <mxCell id="gg5CP_R30aCd0W26x7RS-26" value="&lt;font style=&quot;font-size: 12px;&quot;&gt;&lt;b style=&quot;&quot;&gt;&lt;u&gt;Image Processing&lt;/u&gt;&lt;/b&gt;&lt;/font&gt;" style="text;html=1;align=center;verticalAlign=middle;whiteSpace=wrap;rounded=0;" vertex="1" parent="1">
          <mxGeometry x="350" y="510" width="110" height="30" as="geometry" />
        </mxCell>
        <mxCell id="gg5CP_R30aCd0W26x7RS-27" value="&lt;font style=&quot;font-size: 12px;&quot;&gt;&lt;b style=&quot;&quot;&gt;&lt;u&gt;Support&lt;/u&gt;&lt;/b&gt;&lt;/font&gt;" style="text;html=1;align=center;verticalAlign=middle;whiteSpace=wrap;rounded=0;" vertex="1" parent="1">
          <mxGeometry x="560" y="500" width="110" height="30" as="geometry" />
        </mxCell>
        <mxCell id="gg5CP_R30aCd0W26x7RS-30" value="&lt;div&gt;Results Ranker&lt;/div&gt;" style="whiteSpace=wrap;html=1;verticalAlign=top;fillColor=#E6E6E6;strokeColor=none;sketch=0;pointerEvents=1;" vertex="1" parent="1">
          <mxGeometry x="340" y="630" width="120" height="30" as="geometry" />
        </mxCell>
        <mxCell id="gg5CP_R30aCd0W26x7RS-31" value="Performance Monitor" style="whiteSpace=wrap;html=1;verticalAlign=top;fillColor=#E6E6E6;strokeColor=none;sketch=0;pointerEvents=1;" vertex="1" parent="1">
          <mxGeometry x="550" y="550" width="120" height="30" as="geometry" />
        </mxCell>
        <mxCell id="gg5CP_R30aCd0W26x7RS-32" value="Resource Manager" style="whiteSpace=wrap;html=1;verticalAlign=top;fillColor=#E6E6E6;strokeColor=none;sketch=0;pointerEvents=1;" vertex="1" parent="1">
          <mxGeometry x="550" y="710" width="120" height="30" as="geometry" />
        </mxCell>
        <mxCell id="gg5CP_R30aCd0W26x7RS-37" value="" style="group" vertex="1" connectable="0" parent="1">
          <mxGeometry x="120" y="550" width="120" height="220" as="geometry" />
        </mxCell>
        <mxCell id="gg5CP_R30aCd0W26x7RS-64" value="" style="edgeStyle=orthogonalEdgeStyle;rounded=0;orthogonalLoop=1;jettySize=auto;html=1;" edge="1" parent="gg5CP_R30aCd0W26x7RS-37" source="gg5CP_R30aCd0W26x7RS-29" target="gg5CP_R30aCd0W26x7RS-35">
          <mxGeometry relative="1" as="geometry" />
        </mxCell>
        <mxCell id="gg5CP_R30aCd0W26x7RS-29" value="&lt;div&gt;&lt;br&gt;&lt;/div&gt;&lt;i&gt;Clip Model&lt;/i&gt;&lt;div&gt;Text Encoder&lt;/div&gt;" style="whiteSpace=wrap;html=1;verticalAlign=top;fillColor=#E6E6E6;strokeColor=none;sketch=0;pointerEvents=1;" vertex="1" parent="gg5CP_R30aCd0W26x7RS-37">
          <mxGeometry y="60" width="120" height="70" as="geometry" />
        </mxCell>
        <mxCell id="gg5CP_R30aCd0W26x7RS-33" value="&lt;div&gt;&lt;br&gt;&lt;/div&gt;Query Validator" style="whiteSpace=wrap;html=1;verticalAlign=top;fillColor=#E6E6E6;strokeColor=none;sketch=0;pointerEvents=1;" vertex="1" parent="gg5CP_R30aCd0W26x7RS-37">
          <mxGeometry y="-10" width="120" height="50" as="geometry" />
        </mxCell>
        <mxCell id="gg5CP_R30aCd0W26x7RS-35" value="&lt;br&gt;&lt;div&gt;&lt;i&gt;Clip Model&lt;/i&gt;&lt;div&gt;Image Encoder&lt;/div&gt;&lt;/div&gt;" style="whiteSpace=wrap;html=1;verticalAlign=top;fillColor=#E6E6E6;strokeColor=none;sketch=0;pointerEvents=1;" vertex="1" parent="gg5CP_R30aCd0W26x7RS-37">
          <mxGeometry y="150" width="120" height="70" as="geometry" />
        </mxCell>
        <mxCell id="gg5CP_R30aCd0W26x7RS-34" value="" style="edgeStyle=orthogonalEdgeStyle;rounded=0;orthogonalLoop=1;jettySize=auto;html=1;" edge="1" parent="gg5CP_R30aCd0W26x7RS-37" source="gg5CP_R30aCd0W26x7RS-33" target="gg5CP_R30aCd0W26x7RS-29">
          <mxGeometry relative="1" as="geometry" />
        </mxCell>
        <mxCell id="gg5CP_R30aCd0W26x7RS-36" value="" style="edgeStyle=orthogonalEdgeStyle;rounded=0;orthogonalLoop=1;jettySize=auto;html=1;" edge="1" parent="gg5CP_R30aCd0W26x7RS-37" source="gg5CP_R30aCd0W26x7RS-29" target="gg5CP_R30aCd0W26x7RS-35">
          <mxGeometry relative="1" as="geometry" />
        </mxCell>
        <mxCell id="gg5CP_R30aCd0W26x7RS-38" value="" style="group" vertex="1" connectable="0" parent="1">
          <mxGeometry x="150" y="240" width="529.5" height="160" as="geometry" />
        </mxCell>
        <mxCell id="gg5CP_R30aCd0W26x7RS-8" value="&lt;font style=&quot;font-size: 18px;&quot;&gt;&lt;b style=&quot;&quot;&gt;Frontend Layer&lt;/b&gt;&lt;/font&gt;" style="text;html=1;align=center;verticalAlign=middle;whiteSpace=wrap;rounded=0;" vertex="1" parent="gg5CP_R30aCd0W26x7RS-38">
          <mxGeometry x="163.07988450433106" width="163.07988450433106" height="30" as="geometry" />
        </mxCell>
        <mxCell id="gg5CP_R30aCd0W26x7RS-18" value="" style="edgeStyle=orthogonalEdgeStyle;rounded=0;orthogonalLoop=1;jettySize=auto;html=1;" edge="1" parent="gg5CP_R30aCd0W26x7RS-38" source="gg5CP_R30aCd0W26x7RS-14" target="gg5CP_R30aCd0W26x7RS-17">
          <mxGeometry relative="1" as="geometry" />
        </mxCell>
        <mxCell id="gg5CP_R30aCd0W26x7RS-14" value="" style="points=[[0.35,0,0],[0.98,0.51,0],[1,0.71,0],[0.67,1,0],[0,0.795,0],[0,0.65,0]];verticalLabelPosition=bottom;sketch=0;html=1;verticalAlign=top;aspect=fixed;align=center;pointerEvents=1;shape=mxgraph.cisco19.user;fillColor=#005073;strokeColor=none;" vertex="1" parent="gg5CP_R30aCd0W26x7RS-38">
          <mxGeometry y="70" width="50" height="50" as="geometry" />
        </mxCell>
        <mxCell id="gg5CP_R30aCd0W26x7RS-22" value="" style="edgeStyle=orthogonalEdgeStyle;rounded=0;orthogonalLoop=1;jettySize=auto;html=1;" edge="1" parent="gg5CP_R30aCd0W26x7RS-38" source="gg5CP_R30aCd0W26x7RS-17" target="gg5CP_R30aCd0W26x7RS-23">
          <mxGeometry relative="1" as="geometry">
            <mxPoint x="387.3147256977863" y="25" as="targetPoint" />
          </mxGeometry>
        </mxCell>
        <mxCell id="gg5CP_R30aCd0W26x7RS-17" value="&lt;div&gt;&lt;b&gt;&lt;br&gt;&lt;/b&gt;&lt;/div&gt;&lt;b&gt;&lt;u&gt;Gradio Web Interface&lt;/u&gt;&lt;/b&gt;&lt;div&gt;&lt;b&gt;&lt;br&gt;&lt;/b&gt;&lt;/div&gt;&lt;div&gt;Text Input&lt;/div&gt;&lt;div&gt;Image Gallery&lt;/div&gt;&lt;div&gt;Image &amp;amp; Voice Output&lt;/div&gt;" style="whiteSpace=wrap;html=1;verticalAlign=top;fillColor=#E6E6E6;strokeColor=none;sketch=0;pointerEvents=1;" vertex="1" parent="gg5CP_R30aCd0W26x7RS-38">
          <mxGeometry x="155.43551491819056" y="40" width="178.36862367661212" height="110" as="geometry" />
        </mxCell>
        <mxCell id="gg5CP_R30aCd0W26x7RS-20" value="&lt;font style=&quot;font-size: 12px;&quot;&gt;User&lt;/font&gt;" style="text;html=1;align=center;verticalAlign=middle;whiteSpace=wrap;rounded=0;" vertex="1" parent="gg5CP_R30aCd0W26x7RS-38">
          <mxGeometry y="130" width="50.962463907603464" height="30" as="geometry" />
        </mxCell>
        <mxCell id="gg5CP_R30aCd0W26x7RS-23" value="" style="sketch=0;outlineConnect=0;fontColor=#232F3E;gradientColor=none;fillColor=#ED7100;strokeColor=#2D88FF;dashed=0;verticalLabelPosition=bottom;verticalAlign=top;align=center;html=1;fontSize=12;fontStyle=0;aspect=fixed;pointerEvents=1;shape=mxgraph.aws4.container_registry_image;" vertex="1" parent="gg5CP_R30aCd0W26x7RS-38">
          <mxGeometry x="428.0846968238691" y="71" width="48" height="48" as="geometry" />
        </mxCell>
        <mxCell id="gg5CP_R30aCd0W26x7RS-28" value="&lt;font style=&quot;font-size: 12px;&quot;&gt;Image &amp;amp;&amp;nbsp;&lt;/font&gt;&lt;div&gt;&lt;font style=&quot;font-size: 12px;&quot;&gt;Voice Description&lt;/font&gt;&lt;/div&gt;" style="text;html=1;align=center;verticalAlign=middle;whiteSpace=wrap;rounded=0;" vertex="1" parent="gg5CP_R30aCd0W26x7RS-38">
          <mxGeometry x="375.5933589990375" y="130" width="153.90664100096245" height="30" as="geometry" />
        </mxCell>
        <mxCell id="gg5CP_R30aCd0W26x7RS-39" value="Error Tracker" style="whiteSpace=wrap;html=1;verticalAlign=top;fillColor=#E6E6E6;strokeColor=none;sketch=0;pointerEvents=1;" vertex="1" parent="1">
          <mxGeometry x="550" y="630" width="120" height="30" as="geometry" />
        </mxCell>
        <mxCell id="gg5CP_R30aCd0W26x7RS-40" value="" style="endArrow=none;dashed=1;html=1;dashPattern=1 3;strokeWidth=2;rounded=0;entryX=0;entryY=0.5;entryDx=0;entryDy=0;" edge="1" parent="1" source="gg5CP_R30aCd0W26x7RS-33" target="gg5CP_R30aCd0W26x7RS-31">
          <mxGeometry width="50" height="50" relative="1" as="geometry">
            <mxPoint x="380" y="610" as="sourcePoint" />
            <mxPoint x="430" y="560" as="targetPoint" />
          </mxGeometry>
        </mxCell>
        <mxCell id="gg5CP_R30aCd0W26x7RS-41" value="" style="endArrow=none;dashed=1;html=1;dashPattern=1 3;strokeWidth=2;rounded=0;entryX=0;entryY=0.5;entryDx=0;entryDy=0;exitX=1;exitY=0.5;exitDx=0;exitDy=0;" edge="1" parent="1" source="gg5CP_R30aCd0W26x7RS-30" target="gg5CP_R30aCd0W26x7RS-39">
          <mxGeometry width="50" height="50" relative="1" as="geometry">
            <mxPoint x="380" y="610" as="sourcePoint" />
            <mxPoint x="430" y="560" as="targetPoint" />
          </mxGeometry>
        </mxCell>
        <mxCell id="gg5CP_R30aCd0W26x7RS-42" value="" style="endArrow=none;dashed=1;html=1;dashPattern=1 3;strokeWidth=2;rounded=0;entryX=0;entryY=0.5;entryDx=0;entryDy=0;" edge="1" parent="1">
          <mxGeometry width="50" height="50" relative="1" as="geometry">
            <mxPoint x="240" y="724.5" as="sourcePoint" />
            <mxPoint x="550" y="724.5" as="targetPoint" />
          </mxGeometry>
        </mxCell>
        <mxCell id="gg5CP_R30aCd0W26x7RS-43" value="" style="html=1;shadow=0;dashed=0;align=center;verticalAlign=middle;shape=mxgraph.arrows2.jumpInArrow;dy=15;dx=38;arrowHead=55;rotation=-225;fillColor=light-dark(#CEA3FF,var(--ge-dark-color, #121212));strokeColor=light-dark(#CEA3FF,#FFFFFF);" vertex="1" parent="1">
          <mxGeometry x="201.64" y="429.82" width="181.82" height="89.75" as="geometry" />
        </mxCell>
        <mxCell id="gg5CP_R30aCd0W26x7RS-44" value="" style="html=1;shadow=0;dashed=0;align=center;verticalAlign=middle;shape=mxgraph.arrows2.jumpInArrow;dy=15;dx=38;arrowHead=55;rotation=-225;fillColor=light-dark(#CEA3FF,var(--ge-dark-color, #121212));strokeColor=light-dark(#CEA3FF,#FFFFFF);" vertex="1" parent="1">
          <mxGeometry x="363.06" y="387.02" width="234" height="220" as="geometry" />
        </mxCell>
        <mxCell id="gg5CP_R30aCd0W26x7RS-46" value="" style="endArrow=classic;html=1;rounded=0;exitX=1;exitY=0.333;exitDx=0;exitDy=0;entryX=0;entryY=0.5;entryDx=0;entryDy=0;exitPerimeter=0;" edge="1" parent="1" source="gg5CP_R30aCd0W26x7RS-35" target="gg5CP_R30aCd0W26x7RS-30">
          <mxGeometry width="50" height="50" relative="1" as="geometry">
            <mxPoint x="380" y="710" as="sourcePoint" />
            <mxPoint x="430" y="660" as="targetPoint" />
          </mxGeometry>
        </mxCell>
        <mxCell id="gg5CP_R30aCd0W26x7RS-48" value="" style="endArrow=classic;html=1;rounded=0;exitX=0.5;exitY=1;exitDx=0;exitDy=0;entryX=0.5;entryY=0;entryDx=0;entryDy=0;" edge="1" parent="1" source="gg5CP_R30aCd0W26x7RS-35" target="gg5CP_R30aCd0W26x7RS-49">
          <mxGeometry width="50" height="50" relative="1" as="geometry">
            <mxPoint x="380" y="910" as="sourcePoint" />
            <mxPoint x="430" y="860" as="targetPoint" />
          </mxGeometry>
        </mxCell>
        <mxCell id="gg5CP_R30aCd0W26x7RS-49" value="Image Storage" style="swimlane;fontStyle=0;childLayout=stackLayout;horizontal=1;startSize=30;horizontalStack=0;resizeParent=1;resizeParentMax=0;resizeLast=0;collapsible=1;marginBottom=0;whiteSpace=wrap;html=1;" vertex="1" parent="1">
          <mxGeometry x="125" y="940" width="110" height="60" as="geometry" />
        </mxCell>
        <mxCell id="gg5CP_R30aCd0W26x7RS-50" value="CLIP Embeddings" style="text;strokeColor=none;fillColor=none;align=center;verticalAlign=middle;spacingLeft=4;spacingRight=4;overflow=hidden;points=[[0,0.5],[1,0.5]];portConstraint=eastwest;rotatable=0;whiteSpace=wrap;html=1;" vertex="1" parent="gg5CP_R30aCd0W26x7RS-49">
          <mxGeometry y="30" width="110" height="30" as="geometry" />
        </mxCell>
        <mxCell id="gg5CP_R30aCd0W26x7RS-53" value="Logs Database" style="swimlane;fontStyle=0;childLayout=stackLayout;horizontal=1;startSize=30;horizontalStack=0;resizeParent=1;resizeParentMax=0;resizeLast=0;collapsible=1;marginBottom=0;whiteSpace=wrap;html=1;" vertex="1" parent="1">
          <mxGeometry x="345" y="940" width="110" height="60" as="geometry" />
        </mxCell>
        <mxCell id="gg5CP_R30aCd0W26x7RS-54" value="System Logs" style="text;strokeColor=none;fillColor=none;align=center;verticalAlign=middle;spacingLeft=4;spacingRight=4;overflow=hidden;points=[[0,0.5],[1,0.5]];portConstraint=eastwest;rotatable=0;whiteSpace=wrap;html=1;" vertex="1" parent="gg5CP_R30aCd0W26x7RS-53">
          <mxGeometry y="30" width="110" height="30" as="geometry" />
        </mxCell>
        <mxCell id="gg5CP_R30aCd0W26x7RS-55" value="Metrics Database" style="swimlane;fontStyle=0;childLayout=stackLayout;horizontal=1;startSize=30;horizontalStack=0;resizeParent=1;resizeParentMax=0;resizeLast=0;collapsible=1;marginBottom=0;whiteSpace=wrap;html=1;" vertex="1" parent="1">
          <mxGeometry x="550" y="940" width="130" height="60" as="geometry">
            <mxRectangle x="560" y="940" width="130" height="30" as="alternateBounds" />
          </mxGeometry>
        </mxCell>
        <mxCell id="gg5CP_R30aCd0W26x7RS-56" value="Performance Data" style="text;strokeColor=none;fillColor=none;align=center;verticalAlign=middle;spacingLeft=4;spacingRight=4;overflow=hidden;points=[[0,0.5],[1,0.5]];portConstraint=eastwest;rotatable=0;whiteSpace=wrap;html=1;" vertex="1" parent="gg5CP_R30aCd0W26x7RS-55">
          <mxGeometry y="30" width="130" height="30" as="geometry" />
        </mxCell>
        <mxCell id="gg5CP_R30aCd0W26x7RS-57" value="" style="endArrow=classic;html=1;rounded=0;exitX=0.5;exitY=1;exitDx=0;exitDy=0;entryX=0.5;entryY=0;entryDx=0;entryDy=0;" edge="1" parent="1" source="gg5CP_R30aCd0W26x7RS-30" target="gg5CP_R30aCd0W26x7RS-53">
          <mxGeometry width="50" height="50" relative="1" as="geometry">
            <mxPoint x="380" y="910" as="sourcePoint" />
            <mxPoint x="430" y="860" as="targetPoint" />
          </mxGeometry>
        </mxCell>
        <mxCell id="gg5CP_R30aCd0W26x7RS-62" value="" style="endArrow=classic;html=1;rounded=0;exitX=0.5;exitY=1;exitDx=0;exitDy=0;entryX=0.5;entryY=0;entryDx=0;entryDy=0;" edge="1" parent="1">
          <mxGeometry width="50" height="50" relative="1" as="geometry">
            <mxPoint x="614.06" y="740" as="sourcePoint" />
            <mxPoint x="614.06" y="940" as="targetPoint" />
          </mxGeometry>
        </mxCell>
        <mxCell id="gg5CP_R30aCd0W26x7RS-66" value="&lt;div&gt;Testing&lt;/div&gt;" style="whiteSpace=wrap;html=1;verticalAlign=top;fillColor=#E6E6E6;strokeColor=none;sketch=0;pointerEvents=1;" vertex="1" parent="1">
          <mxGeometry x="340" y="550" width="120" height="30" as="geometry" />
        </mxCell>
        <mxCell id="gg5CP_R30aCd0W26x7RS-67" value="" style="endArrow=classic;html=1;rounded=0;exitX=0.5;exitY=1;exitDx=0;exitDy=0;entryX=0.5;entryY=0;entryDx=0;entryDy=0;" edge="1" parent="1" source="gg5CP_R30aCd0W26x7RS-66" target="gg5CP_R30aCd0W26x7RS-30">
          <mxGeometry width="50" height="50" relative="1" as="geometry">
            <mxPoint x="390" y="660" as="sourcePoint" />
            <mxPoint x="440" y="610" as="targetPoint" />
          </mxGeometry>
        </mxCell>
        <mxCell id="gg5CP_R30aCd0W26x7RS-68" value="" style="endArrow=classic;html=1;rounded=0;entryX=1;entryY=0;entryDx=0;entryDy=0;" edge="1" parent="1" target="gg5CP_R30aCd0W26x7RS-35">
          <mxGeometry width="50" height="50" relative="1" as="geometry">
            <mxPoint x="400" y="580" as="sourcePoint" />
            <mxPoint x="440" y="610" as="targetPoint" />
          </mxGeometry>
        </mxCell>
        <mxCell id="gg5CP_R30aCd0W26x7RS-69" value="" style="endArrow=classic;html=1;rounded=0;entryX=1;entryY=0.5;entryDx=0;entryDy=0;" edge="1" parent="1" target="gg5CP_R30aCd0W26x7RS-29">
          <mxGeometry width="50" height="50" relative="1" as="geometry">
            <mxPoint x="400" y="580" as="sourcePoint" />
            <mxPoint x="440" y="610" as="targetPoint" />
          </mxGeometry>
        </mxCell>
        <mxCell id="gg5CP_R30aCd0W26x7RS-70" value="" style="endArrow=classic;html=1;rounded=0;exitX=0;exitY=0.75;exitDx=0;exitDy=0;entryX=1;entryY=0.75;entryDx=0;entryDy=0;" edge="1" parent="1" source="gg5CP_R30aCd0W26x7RS-66" target="gg5CP_R30aCd0W26x7RS-33">
          <mxGeometry width="50" height="50" relative="1" as="geometry">
            <mxPoint x="400" y="580" as="sourcePoint" />
            <mxPoint x="440" y="610" as="targetPoint" />
          </mxGeometry>
        </mxCell>
      </root>
    </mxGraphModel>
  </diagram>
</mxfile>
